<svg width="25" height="17" viewBox="0 0 25 17" fill="none" xmlns="http://www.w3.org/2000/svg">
<path d="M0 1.0625C0 0.780707 0.16462 0.510456 0.457646 0.311199C0.750671 0.111942 1.1481 0 1.5625 0L23.4375 0C23.8519 0 24.2493 0.111942 24.5424 0.311199C24.8354 0.510456 25 0.780707 25 1.0625V15.9375C25 16.2193 24.8354 16.4895 24.5424 16.6888C24.2493 16.8881 23.8519 17 23.4375 17H1.5625C1.1481 17 0.750671 16.8881 0.457646 16.6888C0.16462 16.4895 0 16.2193 0 15.9375V1.0625ZM6.25 1.0625V7.4375H18.75V1.0625H6.25ZM18.75 9.5625H6.25V12.75V15.9375H18.75V9.5625ZM1.5625 1.0625V3.1875H4.6875V1.0625H1.5625ZM4.6875 4.25H1.5625V6.375H4.6875V4.25ZM1.5625 7.4375V9.5625H4.6875V7.4375H1.5625ZM4.6875 10.625H1.5625V12.75H4.6875V10.625ZM1.5625 13.8125V15.9375H4.6875V13.8125H1.5625ZM23.4375 1.0625H20.3125V3.1875H23.4375V1.0625ZM20.3125 4.25V6.375H23.4375V4.25H20.3125ZM23.4375 7.4375H20.3125V9.5625H23.4375V7.4375ZM20.3125 10.625V12.75H23.4375V10.625H20.3125ZM23.4375 13.8125H20.3125V15.9375H23.4375V13.8125Z" fill="black"/>
</svg>
