<svg width="18" height="18" viewBox="0 0 18 18" fill="none" xmlns="http://www.w3.org/2000/svg">
<path d="M15.3938 14.7822L12.7781 12.2752C13.8011 11.06 14.2998 9.51476 14.1718 7.95722C14.0438 6.39968 13.2987 4.94823 12.0898 3.90131C10.8809 2.8544 9.29998 2.2916 7.67221 2.32863C6.04444 2.36567 4.4935 2.99972 3.3383 4.10042C2.1831 5.20113 1.51144 6.68481 1.46143 8.2464C1.41143 9.80799 1.98687 11.3288 3.06944 12.4961C4.15202 13.6634 5.65943 14.3885 7.28173 14.5222C8.90403 14.656 10.5179 14.1883 11.7915 13.2152L14.386 15.7222C14.4515 15.786 14.5296 15.8368 14.6156 15.8716C14.7017 15.9063 14.7941 15.9244 14.8875 15.9247C14.9809 15.925 15.0734 15.9076 15.1597 15.8735C15.2461 15.8393 15.3245 15.7891 15.3905 15.7257C15.5184 15.5996 15.5903 15.4307 15.5909 15.2547C15.5915 15.0786 15.5208 14.9092 15.3938 14.7822ZM7.82306 13.2013C6.8437 13.1979 5.88731 12.9159 5.07484 12.391C4.26236 11.866 3.63028 11.1217 3.25854 10.2522C2.88679 9.38275 2.79208 8.42707 2.98637 7.50608C3.18066 6.58508 3.65523 5.74013 4.35007 5.07807C5.04491 4.41602 5.92881 3.96659 6.88999 3.78662C7.85117 3.60666 8.84647 3.70423 9.75002 4.06702C10.6536 4.4298 11.4248 5.0415 11.9662 5.82475C12.5075 6.60801 12.7947 7.52764 12.7914 8.46736C12.787 9.72749 12.2611 10.9342 11.3293 11.822C10.3976 12.7098 9.13634 13.2059 7.82306 13.2013Z" fill="#C6C6C6"/>
</svg>
